<?xml version="1.0" encoding="utf-8"?>
<!-- Generator: Adobe Illustrator 16.0.0, SVG Export Plug-In . SVG Version: 6.00 Build 0)  -->
<!DOCTYPE svg PUBLIC "-//W3C//DTD SVG 1.1//EN" "http://www.w3.org/Graphics/SVG/1.1/DTD/svg11.dtd">
<svg version="1.1" id="Layer_1" xmlns="http://www.w3.org/2000/svg" xmlns:xlink="http://www.w3.org/1999/xlink" x="0px" y="0px"
	 width="15.625px" height="10.063px" viewBox="0 1 15.625 10.063" enable-background="new 0 1 15.625 10.063" xml:space="preserve">
<path fill="#FFFFFF" d="M14.563,3.031c0,0.432-0.497,0.781-1.109,0.781H2.266c-0.613,0-1.109-0.35-1.109-0.781l0,0
	c0-0.432,0.497-0.781,1.109-0.781h11.188C14.065,2.25,14.563,2.6,14.563,3.031L14.563,3.031z"/>
<path fill="#FFFFFF" d="M14.563,8.984c0,0.458-0.497,0.828-1.109,0.828H2.266c-0.613,0-1.109-0.37-1.109-0.828l0,0
	c0-0.458,0.497-0.828,1.109-0.828h11.188C14.065,8.156,14.563,8.526,14.563,8.984L14.563,8.984z"/>
<path fill="#FFFFFF" d="M14.563,5.984c0,0.44-0.497,0.797-1.109,0.797H2.266c-0.613,0-1.109-0.357-1.109-0.797l0,0
	c0-0.44,0.497-0.797,1.109-0.797h11.188C14.065,5.188,14.563,5.544,14.563,5.984L14.563,5.984z"/>
</svg>
